<?xml version="1.0"?>
<svg xmlns="http://www.w3.org/2000/svg" version="1.1" viewBox="0 0 224 224" width="96px" height="96px">
  <g fill="none" fill-rule="nonzero" stroke="none" stroke-width="none" stroke-linecap="butt" stroke-linejoin="none"
     stroke-miterlimit="10" stroke-dasharray="" stroke-dashoffset="0" font-family="none" font-weight="none"
     font-size="none" text-anchor="none" style="mix-blend-mode: normal">
    <path d="M0,224v-224h224v224z" fill="none" stroke="none" stroke-width="1" stroke-linejoin="miter"/>
    <g id="Two-Tone">
      <path
        d="M192.84533,177.33333c7.94267,-13.72933 12.488,-29.66133 12.488,-46.66667c0,-51.548 -41.78533,-93.33333 -93.33333,-93.33333c-51.548,0 -93.33333,41.78533 -93.33333,93.33333c0,17.00533 4.54533,32.94667 12.488,46.676z"
        fill="#673ab7" stroke="none" stroke-width="1" stroke-linejoin="miter" opacity="0.3"/>
      <circle cx="12" cy="14" transform="scale(9.33333,9.33333)" r="2" fill="#673ab7" stroke="none" stroke-width="1"
              stroke-linejoin="miter"/>
      <path d="M112,130.66667l61.02133,-34.86933" fill="none" stroke="#673ab7" stroke-width="18.66667"
            stroke-linejoin="miter"/>
      <circle cx="19" cy="14" transform="scale(9.33333,9.33333)" r="1" fill="#673ab7" stroke="none" stroke-width="1"
              stroke-linejoin="miter"/>
      <circle cx="5" cy="14" transform="scale(9.33333,9.33333)" r="1" fill="#673ab7" stroke="none" stroke-width="1"
              stroke-linejoin="miter"/>
      <circle cx="6" cy="17.5" transform="scale(9.33333,9.33333)" r="1" fill="#673ab7" stroke="none" stroke-width="1"
              stroke-linejoin="miter"/>
      <circle cx="6" cy="10.5" transform="scale(9.33333,9.33333)" r="1" fill="#673ab7" stroke="none" stroke-width="1"
              stroke-linejoin="miter"/>
      <circle cx="18" cy="17.781" transform="scale(9.33333,9.33333)" r="1" fill="#673ab7" stroke="none" stroke-width="1"
              stroke-linejoin="miter"/>
      <circle cx="8.5" cy="8" transform="scale(9.33333,9.33333)" r="1" fill="#673ab7" stroke="none" stroke-width="1"
              stroke-linejoin="miter"/>
      <circle cx="12" cy="7" transform="scale(9.33333,9.33333)" r="1" fill="#673ab7" stroke="none" stroke-width="1"
              stroke-linejoin="miter"/>
      <circle cx="15.438" cy="8" transform="scale(9.33333,9.33333)" r="1" fill="#673ab7" stroke="none" stroke-width="1"
              stroke-linejoin="miter"/>
      <path
        d="M192.84533,177.33333c7.94267,-13.72933 12.488,-29.66133 12.488,-46.66667c0,-51.548 -41.78533,-93.33333 -93.33333,-93.33333c-51.548,0 -93.33333,41.78533 -93.33333,93.33333c0,17.00533 4.54533,32.94667 12.488,46.676z"
        fill="none" stroke="#673ab7" stroke-width="18.66667" stroke-linejoin="round"/>
    </g>
  </g>
</svg>
