<?xml version="1.0"?>
<svg xmlns="http://www.w3.org/2000/svg" version="1.1" viewBox="0 0 224 224" width="96px" height="96px">
  <g fill="none" fill-rule="nonzero" stroke="none" stroke-width="none" stroke-linecap="butt" stroke-linejoin="none"
     stroke-miterlimit="10" stroke-dasharray="" stroke-dashoffset="0" font-family="none" font-weight="none"
     font-size="none" text-anchor="none" style="mix-blend-mode: normal">
    <path d="M0,224v-224h224v224z" fill="none" stroke="none" stroke-width="1" stroke-linejoin="miter"/>
    <g id="Two-Tone">
      <g fill="#673ab7" stroke="none" stroke-width="1" stroke-linejoin="miter" opacity="0.3">
        <path
          d="M186.66667,177.33333h-149.33333c-5.152,0 -9.33333,-4.18133 -9.33333,-9.33333v-112c0,-5.152 4.18133,-9.33333 9.33333,-9.33333h149.33333c5.152,0 9.33333,4.18133 9.33333,9.33333v112c0,5.152 -4.18133,9.33333 -9.33333,9.33333z"/>
      </g>
      <path
        d="M186.66667,177.33333h-149.33333c-5.152,0 -9.33333,-4.18133 -9.33333,-9.33333v-112c0,-5.152 4.18133,-9.33333 9.33333,-9.33333h149.33333c5.152,0 9.33333,4.18133 9.33333,9.33333v112c0,5.152 -4.18133,9.33333 -9.33333,9.33333z"
        fill="none" stroke="#673ab7" stroke-width="18.66667" stroke-linejoin="round"/>
      <path d="M170.33333,149.33333l-35,-46.66667l-32.66667,37.33333l-23.33333,-23.33333l-25.40533,32.66667z"
            fill="#673ab7" stroke="none" stroke-width="1" stroke-linejoin="miter"/>
    </g>
  </g>
</svg>
