<?xml version="1.0"?>
<svg xmlns="http://www.w3.org/2000/svg" version="1.1" viewBox="0 0 224 224" width="96px" height="96px">
  <g fill="none" fill-rule="nonzero" stroke="none" stroke-width="none" stroke-linecap="none" stroke-linejoin="miter"
     stroke-miterlimit="10" stroke-dasharray="" stroke-dashoffset="0" font-family="none" font-weight="none"
     font-size="none" text-anchor="none" style="mix-blend-mode: normal">
    <path d="M0,224v-224h224v224z" fill="none" stroke="none" stroke-width="1" stroke-linecap="butt"/>
    <g id="Two_Tone">
      <g fill="#673ab7" stroke="none" stroke-width="1" stroke-linecap="butt" opacity="0.3">
        <path
          d="M62.22533,74.66667h-12.45067c-6.86,0 -12.44133,5.58133 -12.44133,12.44133v12.44133c0,6.86933 5.58133,12.45067 12.44133,12.45067h12.44133c6.86933,0 12.45067,-5.58133 12.45067,-12.44133v-12.45067c0,-6.86 -5.58133,-12.44133 -12.44133,-12.44133z"/>
      </g>
      <g fill="#673ab7" stroke="none" stroke-width="1" stroke-linecap="butt" opacity="0.3">
        <path
          d="M62.22533,149.33333h-12.45067c-6.86,0 -12.44133,5.58133 -12.44133,12.44133v12.44133c0,6.86933 5.58133,12.45067 12.44133,12.45067h12.44133c6.86933,0 12.45067,-5.58133 12.45067,-12.44133v-12.44133c0,-6.86933 -5.58133,-12.45067 -12.44133,-12.45067z"/>
      </g>
      <g fill="#673ab7" stroke="none" stroke-width="1" stroke-linecap="butt">
        <path
          d="M65.33333,84v18.66667h-18.66667v-18.66667h18.66667M65.33333,65.33333h-18.66667c-10.29467,0 -18.66667,8.372 -18.66667,18.66667v18.66667c0,10.29467 8.372,18.66667 18.66667,18.66667h18.66667c10.29467,0 18.66667,-8.372 18.66667,-18.66667v-18.66667c0,-10.29467 -8.372,-18.66667 -18.66667,-18.66667z"/>
      </g>
      <g fill="#673ab7" stroke="none" stroke-width="1" stroke-linecap="butt">
        <path
          d="M65.33333,158.66667v18.66667h-18.66667v-18.66667h18.66667M65.33333,140h-18.66667c-10.29467,0 -18.66667,8.372 -18.66667,18.66667v18.66667c0,10.29467 8.372,18.66667 18.66667,18.66667h18.66667c10.29467,0 18.66667,-8.372 18.66667,-18.66667v-18.66667c0,-10.29467 -8.372,-18.66667 -18.66667,-18.66667z"/>
      </g>
      <path d="M112,74.66667h74.66667" fill="none" stroke="#673ab7" stroke-width="18.66667" stroke-linecap="square"/>
      <path d="M37.33333,37.33333h149.33333" fill="none" stroke="#673ab7" stroke-width="18.66667"
            stroke-linecap="square"/>
      <path d="M112,112h46.66667" fill="none" stroke="#673ab7" stroke-width="18.66667" stroke-linecap="square"/>
      <path d="M112,149.33333h74.66667" fill="none" stroke="#673ab7" stroke-width="18.66667" stroke-linecap="square"/>
      <path d="M112,186.66667h46.66667" fill="none" stroke="#673ab7" stroke-width="18.66667" stroke-linecap="square"/>
    </g>
  </g>
</svg>
