<?xml version="1.0"?>
<svg xmlns="http://www.w3.org/2000/svg" version="1.1" viewBox="0 0 224 224" width="96px" height="96px">
  <g fill="none" fill-rule="nonzero" stroke="none" stroke-width="none" stroke-linecap="butt" stroke-linejoin="miter"
     stroke-miterlimit="10" stroke-dasharray="" stroke-dashoffset="0" font-family="none" font-weight="none"
     font-size="none" text-anchor="none" style="mix-blend-mode: normal">
    <path d="M0,224v-224h224v224z" fill="none" stroke="none" stroke-width="1"/>
    <g id="Two_Tone">
      <g id="Outlined_8_" fill="none" stroke="#673ab7" stroke-width="18.66667">
        <path
          d="M196,168c0,5.14267 -4.19067,9.33333 -9.33333,9.33333h-149.33333c-5.14267,0 -9.33333,-4.19067 -9.33333,-9.33333v-112c0,-5.14267 4.19067,-9.33333 9.33333,-9.33333h52.136l18.66667,18.66667h78.53067c5.14267,0 9.33333,4.19067 9.33333,9.33333z"/>
      </g>
      <g id="Outlined_9_" fill="#673ab7" stroke="none" stroke-width="1" opacity="0.3">
        <path
          d="M196,168c0,5.14267 -4.19067,9.33333 -9.33333,9.33333h-149.33333c-5.14267,0 -9.33333,-4.19067 -9.33333,-9.33333v-112c0,-5.14267 4.19067,-9.33333 9.33333,-9.33333h52.136l18.66667,18.66667h78.53067c5.14267,0 9.33333,4.19067 9.33333,9.33333z"/>
      </g>
      <g fill="#673ab7" stroke="none" stroke-width="1">
        <path d="M121.33333,112h-9.33333v-9.33333v-18.66667h-28v74.66667h56v-46.66667z"/>
        <path d="M121.33333,84v18.66667h18.66667z"/>
      </g>
    </g>
  </g>
</svg>
